<svg xmlns="http://www.w3.org/2000/svg" xmlns:xlink="http://www.w3.org/1999/xlink" width="250" zoomAndPan="magnify" viewBox="0 0 187.5 74.999997" height="100" preserveAspectRatio="xMidYMid meet" version="1.0"><defs><g/><clipPath id="id1"><path d="M 14.019531 30.421875 L 55.933594 30.421875 L 55.933594 45.449219 L 14.019531 45.449219 Z M 14.019531 30.421875 " clip-rule="nonzero"/></clipPath><clipPath id="id2"><path d="M 17.78125 25.949219 L 43.472656 25.949219 L 43.472656 45.449219 L 17.78125 45.449219 Z M 17.78125 25.949219 " clip-rule="nonzero"/></clipPath><clipPath id="id3"><path d="M 63 14 L 73 14 L 73 44 L 63 44 Z M 63 14 " clip-rule="nonzero"/></clipPath><clipPath id="id4"><path d="M 48.375 6.035156 L 97.085938 14.832031 L 89.222656 58.378906 L 40.511719 49.582031 Z M 48.375 6.035156 " clip-rule="nonzero"/></clipPath><clipPath id="id5"><path d="M 48.375 6.035156 L 97.085938 14.832031 L 89.222656 58.378906 L 40.511719 49.582031 Z M 48.375 6.035156 " clip-rule="nonzero"/></clipPath><clipPath id="id6"><path d="M 48 19 L 93 19 L 93 40 L 48 40 Z M 48 19 " clip-rule="nonzero"/></clipPath><clipPath id="id7"><path d="M 48.375 6.035156 L 97.085938 14.832031 L 89.222656 58.378906 L 40.511719 49.582031 Z M 48.375 6.035156 " clip-rule="nonzero"/></clipPath><clipPath id="id8"><path d="M 48.375 6.035156 L 97.085938 14.832031 L 89.222656 58.378906 L 40.511719 49.582031 Z M 48.375 6.035156 " clip-rule="nonzero"/></clipPath><clipPath id="id9"><path d="M 65 38 L 83 38 L 83 50 L 65 50 Z M 65 38 " clip-rule="nonzero"/></clipPath><clipPath id="id10"><path d="M 48.375 6.035156 L 97.085938 14.832031 L 89.222656 58.378906 L 40.511719 49.582031 Z M 48.375 6.035156 " clip-rule="nonzero"/></clipPath><clipPath id="id11"><path d="M 48.375 6.035156 L 97.085938 14.832031 L 89.222656 58.378906 L 40.511719 49.582031 Z M 48.375 6.035156 " clip-rule="nonzero"/></clipPath><clipPath id="id12"><path d="M 45 10 L 94 10 L 94 47 L 45 47 Z M 45 10 " clip-rule="nonzero"/></clipPath><clipPath id="id13"><path d="M 48.375 6.035156 L 97.085938 14.832031 L 89.222656 58.378906 L 40.511719 49.582031 Z M 48.375 6.035156 " clip-rule="nonzero"/></clipPath><clipPath id="id14"><path d="M 48.375 6.035156 L 97.085938 14.832031 L 89.222656 58.378906 L 40.511719 49.582031 Z M 48.375 6.035156 " clip-rule="nonzero"/></clipPath><clipPath id="id15"><path d="M 48.394531 6.039062 L 97.085938 14.832031 L 90.410156 51.796875 L 41.722656 43.003906 Z M 48.394531 6.039062 " clip-rule="nonzero"/></clipPath><clipPath id="id16"><path d="M 48.394531 6.039062 L 97.066406 14.828125 L 90.394531 51.792969 L 41.722656 43.003906 Z M 48.394531 6.039062 " clip-rule="nonzero"/></clipPath><clipPath id="id17"><path d="M 63 44 L 69 44 L 69 50 L 63 50 Z M 63 44 " clip-rule="nonzero"/></clipPath><clipPath id="id18"><path d="M 48.375 6.035156 L 97.085938 14.832031 L 89.222656 58.378906 L 40.511719 49.582031 Z M 48.375 6.035156 " clip-rule="nonzero"/></clipPath><clipPath id="id19"><path d="M 48.375 6.035156 L 97.085938 14.832031 L 89.222656 58.378906 L 40.511719 49.582031 Z M 48.375 6.035156 " clip-rule="nonzero"/></clipPath><clipPath id="id20"><path d="M 63.667969 44.25 L 68.871094 45.1875 L 67.941406 50.34375 L 62.738281 49.402344 Z M 63.667969 44.25 " clip-rule="nonzero"/></clipPath><clipPath id="id21"><path d="M 63.667969 44.25 L 68.871094 45.1875 L 67.941406 50.34375 L 62.738281 49.402344 Z M 63.667969 44.25 " clip-rule="nonzero"/></clipPath><clipPath id="id22"><path d="M 37 41 L 60 41 L 60 66 L 37 66 Z M 37 41 " clip-rule="nonzero"/></clipPath><clipPath id="id23"><path d="M 32.597656 48.871094 L 52.246094 37.90625 L 63.574219 58.210938 L 43.925781 69.171875 Z M 32.597656 48.871094 " clip-rule="nonzero"/></clipPath><clipPath id="id24"><path d="M 32.597656 48.871094 L 52.246094 37.90625 L 63.574219 58.210938 L 43.925781 69.171875 Z M 32.597656 48.871094 " clip-rule="nonzero"/></clipPath><clipPath id="id25"><path d="M 37 46 L 57 46 L 57 62 L 37 62 Z M 37 46 " clip-rule="nonzero"/></clipPath><clipPath id="id26"><path d="M 32.597656 48.871094 L 52.246094 37.90625 L 63.574219 58.210938 L 43.925781 69.171875 Z M 32.597656 48.871094 " clip-rule="nonzero"/></clipPath><clipPath id="id27"><path d="M 32.597656 48.871094 L 52.246094 37.90625 L 63.574219 58.210938 L 43.925781 69.171875 Z M 32.597656 48.871094 " clip-rule="nonzero"/></clipPath><clipPath id="id28"><path d="M 38 43 L 61 43 L 61 68 L 38 68 Z M 38 43 " clip-rule="nonzero"/></clipPath><clipPath id="id29"><path d="M 32.597656 48.871094 L 52.246094 37.90625 L 63.574219 58.210938 L 43.925781 69.171875 Z M 32.597656 48.871094 " clip-rule="nonzero"/></clipPath><clipPath id="id30"><path d="M 32.597656 48.871094 L 52.246094 37.90625 L 63.574219 58.210938 L 43.925781 69.171875 Z M 32.597656 48.871094 " clip-rule="nonzero"/></clipPath><clipPath id="id31"><path d="M 33.246094 49.800781 L 51.339844 39.703125 L 62.128906 59.035156 L 44.035156 69.132812 Z M 33.246094 49.800781 " clip-rule="nonzero"/></clipPath><clipPath id="id32"><path d="M 33.246094 49.800781 L 51.339844 39.703125 L 62.121094 59.023438 L 44.027344 69.121094 Z M 33.246094 49.800781 " clip-rule="nonzero"/></clipPath><clipPath id="id33"><path d="M 43 53 L 56 53 L 56 59 L 43 59 Z M 43 53 " clip-rule="nonzero"/></clipPath><clipPath id="id34"><path d="M 32.597656 48.871094 L 52.246094 37.90625 L 63.574219 58.210938 L 43.925781 69.171875 Z M 32.597656 48.871094 " clip-rule="nonzero"/></clipPath><clipPath id="id35"><path d="M 32.597656 48.871094 L 52.246094 37.90625 L 63.574219 58.210938 L 43.925781 69.171875 Z M 32.597656 48.871094 " clip-rule="nonzero"/></clipPath><clipPath id="id36"><path d="M 43 54 L 56 54 L 56 60 L 43 60 Z M 43 54 " clip-rule="nonzero"/></clipPath><clipPath id="id37"><path d="M 32.597656 48.871094 L 52.246094 37.90625 L 63.574219 58.210938 L 43.925781 69.171875 Z M 32.597656 48.871094 " clip-rule="nonzero"/></clipPath><clipPath id="id38"><path d="M 32.597656 48.871094 L 52.246094 37.90625 L 63.574219 58.210938 L 43.925781 69.171875 Z M 32.597656 48.871094 " clip-rule="nonzero"/></clipPath></defs><g clip-path="url(#id1)"><path fill="rgb(100%, 74.119568%, 34.899902%)" d="M 35.757812 31.578125 C 38.519531 31.859375 41 33.015625 43.644531 33.679688 C 46.84375 34.484375 49.933594 35.410156 53.316406 35.355469 C 53.769531 35.34375 55.667969 35.171875 55.933594 35.117188 C 52.3125 34.558594 48.730469 33.96875 45.199219 33.113281 C 41.882812 32.308594 38.601562 31.046875 35.171875 30.621094 C 32.792969 30.316406 30.625 30.539062 28.109375 31.253906 C 22.765625 32.773438 17.859375 34.761719 14.019531 38.503906 C 19.988281 34.507812 27.628906 30.761719 35.757812 31.578125 Z M 40.199219 39.339844 C 36.328125 37.980469 26.214844 39.339844 21.34375 45.449219 C 21.34375 45.449219 31.132812 37.617188 41.089844 40.460938 C 49.746094 42.9375 54.929688 41.777344 54.929688 41.777344 L 53.445312 41.460938 C 53.445312 41.460938 45.164062 41.082031 40.199219 39.339844 Z M 20.394531 41.601562 C 25.265625 35.492188 36.027344 34.523438 39.9375 35.769531 C 45.207031 37.449219 52.121094 37.597656 52.121094 37.597656 L 53.976562 37.929688 C 53.976562 37.929688 50.300781 39.015625 40.136719 36.613281 C 30.058594 34.230469 20.394531 41.601562 20.394531 41.601562 " fill-opacity="1" fill-rule="nonzero"/></g><path fill="rgb(97.24884%, 60.389709%, 18.03894%)" d="M 32.703125 31.707031 C 32.703125 31.707031 32.515625 33.183594 31.6875 33.503906 C 31.6875 33.503906 32.644531 33.953125 32.714844 34.914062 C 32.71875 34.976562 33.039062 33.621094 33.820312 33.417969 C 33.820312 33.417969 32.816406 33.066406 32.703125 31.707031 Z M 43.878906 34.367188 C 43.871094 34.242188 43.21875 36.980469 41.640625 37.394531 C 41.640625 37.394531 43.671875 38.109375 43.902344 40.859375 C 43.902344 40.859375 44.28125 38.070312 45.699219 37.671875 C 45.699219 37.671875 44.019531 36.308594 43.878906 34.367188 Z M 37.183594 40.859375 L 38.027344 40.113281 L 39.359375 28.269531 L 38.871094 27.175781 Z M 27.617188 28.46875 L 28.574219 34.535156 L 29.527344 34.226562 L 28.320312 28.199219 Z M 19.15625 30.480469 L 19.738281 38.507812 L 20.222656 38 L 20.007812 30.492188 Z M 23.269531 35.332031 C 23.066406 35.1875 22.699219 35.105469 22.472656 35.230469 C 22.402344 35.234375 22.332031 35.261719 22.273438 35.320312 C 21.972656 35.617188 21.988281 36.082031 22.296875 36.367188 C 22.644531 36.683594 23.191406 36.707031 23.519531 36.359375 C 23.832031 36.027344 23.589844 35.554688 23.269531 35.332031 Z M 51.183594 40.78125 C 50.855469 41.128906 50.3125 41.105469 49.964844 40.789062 C 49.652344 40.503906 49.640625 40.042969 49.941406 39.742188 C 50 39.683594 50.066406 39.660156 50.140625 39.65625 C 50.367188 39.527344 50.734375 39.613281 50.9375 39.753906 C 51.253906 39.976562 51.496094 40.449219 51.183594 40.78125 " fill-opacity="1" fill-rule="nonzero"/><g clip-path="url(#id2)"><path fill="rgb(46.269226%, 26.669312%, 5.879211%)" d="M 31.738281 42.976562 C 31.320312 42.914062 30.890625 43.109375 30.605469 43.417969 C 30.320312 43.726562 30.171875 44.140625 30.117188 44.554688 C 30.09375 44.726562 30.089844 44.90625 30.144531 45.070312 C 30.199219 45.234375 30.324219 45.386719 30.492188 45.433594 C 30.605469 45.464844 30.726562 45.449219 30.839844 45.414062 C 31.152344 45.320312 31.417969 45.097656 31.605469 44.832031 C 31.796875 44.566406 31.921875 44.261719 32.03125 43.953125 C 32.097656 43.773438 32.160156 43.578125 32.121094 43.390625 C 32.082031 43.199219 31.929688 42.941406 31.738281 42.976562 Z M 43.203125 26.996094 C 42.984375 26.636719 42.609375 26.371094 42.195312 26.199219 C 41.257812 25.804688 40.097656 25.886719 39.238281 26.402344 C 38.972656 26.5625 38.722656 26.78125 38.671875 27.0625 C 38.71875 27.316406 38.8125 27.421875 38.96875 27.636719 C 39.300781 28.089844 39.820312 28.414062 40.390625 28.597656 C 40.957031 28.777344 41.570312 28.820312 42.171875 28.785156 C 42.550781 28.765625 42.964844 28.695312 43.195312 28.421875 C 43.285156 28.320312 43.339844 28.191406 43.371094 28.0625 C 43.460938 27.703125 43.402344 27.316406 43.203125 26.996094 Z M 30.078125 33.34375 C 29.871094 33.109375 29.566406 33.019531 29.265625 33.046875 C 29.242188 33.039062 29.214844 33.03125 29.1875 33.027344 C 28.511719 32.984375 28 33.390625 27.582031 33.871094 C 27.210938 34.292969 26.910156 34.769531 26.683594 35.28125 C 26.457031 35.796875 26.308594 36.351562 26.25 36.910156 C 26.195312 37.402344 26.128906 38.09375 26.453125 38.507812 C 26.804688 38.953125 27.480469 38.851562 27.941406 38.664062 C 28.425781 38.46875 28.875 38.125 29.226562 37.742188 C 29.921875 36.988281 30.339844 36.019531 30.417969 35.003906 C 30.460938 34.460938 30.453125 33.78125 30.078125 33.34375 Z M 21.464844 37.78125 C 21.535156 38.125 21.421875 38.480469 21.300781 38.808594 C 21.101562 39.367188 20.875 39.921875 20.527344 40.402344 C 20.183594 40.886719 19.707031 41.296875 19.132812 41.464844 C 18.929688 41.527344 18.707031 41.554688 18.503906 41.5 C 18.195312 41.414062 17.96875 41.140625 17.867188 40.839844 C 17.769531 40.539062 17.78125 40.214844 17.820312 39.902344 C 17.917969 39.148438 18.191406 38.398438 18.707031 37.835938 C 19.226562 37.273438 20.007812 36.921875 20.769531 37.03125 C 21.121094 36.96875 21.394531 37.4375 21.464844 37.78125 " fill-opacity="1" fill-rule="nonzero"/></g><path fill="rgb(97.24884%, 60.389709%, 18.03894%)" d="M 31.121094 38.066406 C 31.222656 38.257812 31.414062 41.570312 31.433594 42.972656 C 31.535156 42.960938 31.636719 42.960938 31.738281 42.976562 C 31.929688 42.941406 32.082031 43.199219 32.121094 43.390625 L 31.753906 38.582031 C 33.09375 38.558594 34.359375 38.066406 34.359375 38.066406 L 34.617188 39.480469 L 35.070312 39.429688 L 35.152344 37.304688 C 34.042969 37.425781 30.996094 37.824219 31.121094 38.066406 Z M 27.949219 26.019531 L 28.574219 27.789062 C 28.574219 27.789062 28.320312 30.117188 18.601562 30.878906 L 18.855469 29.972656 C 18.855469 29.972656 24.78125 29.335938 27.949219 26.019531 " fill-opacity="1" fill-rule="nonzero"/><g clip-path="url(#id3)"><g clip-path="url(#id4)"><g clip-path="url(#id5)"><path fill="rgb(46.269226%, 26.669312%, 5.879211%)" d="M 71.460938 39.453125 C 68.945312 40.570312 67.320312 42.429688 66.417969 43.761719 C 66.253906 40.417969 65.101562 38.324219 63.546875 37.03125 L 72.066406 14.671875 L 71.460938 39.453125 " fill-opacity="1" fill-rule="nonzero"/></g></g></g><g clip-path="url(#id6)"><g clip-path="url(#id7)"><g clip-path="url(#id8)"><path fill="rgb(100%, 56.858826%, 30.198669%)" d="M 69.75 33.984375 C 69.742188 33.597656 69.882812 33.207031 70.148438 32.921875 C 70.222656 32.84375 70.117188 32.789062 70.042969 32.777344 C 69.945312 32.761719 69.777344 32.765625 69.699219 32.847656 C 69.402344 33.167969 69.234375 33.589844 69.242188 34.027344 C 69.242188 34.066406 69.296875 34.089844 69.324219 34.101562 C 69.378906 34.121094 69.449219 34.125 69.503906 34.117188 C 69.570312 34.113281 69.75 34.085938 69.75 33.984375 Z M 70.503906 28.257812 C 70.53125 28.238281 70.582031 28.207031 70.574219 28.164062 C 70.492188 27.828125 70.484375 27.472656 70.566406 27.136719 C 70.589844 27.03125 70.453125 27.003906 70.375 27.003906 C 70.3125 27 70.242188 27.007812 70.183594 27.03125 C 70.144531 27.046875 70.082031 27.070312 70.070312 27.113281 C 69.984375 27.476562 69.976562 27.847656 70.066406 28.210938 C 70.089844 28.308594 70.246094 28.316406 70.328125 28.308594 C 70.386719 28.300781 70.453125 28.289062 70.503906 28.257812 Z M 69.363281 37.59375 C 69.296875 37.597656 69.230469 37.601562 69.167969 37.621094 C 69.132812 37.632812 69.074219 37.644531 69.054688 37.679688 C 68.789062 38.125 68.488281 38.660156 68.695312 39.1875 C 68.75 39.324219 69.234375 39.21875 69.203125 39.144531 C 69 38.628906 69.285156 38.117188 69.546875 37.683594 C 69.59375 37.605469 69.398438 37.59375 69.363281 37.59375 Z M 71.566406 35.28125 L 71.464844 39.457031 C 73.0625 38.746094 75.023438 38.339844 77.390625 38.554688 C 81.550781 27.761719 92.632812 30.195312 92.632812 30.195312 C 80.730469 25.832031 74.582031 30.683594 71.566406 35.28125 Z M 69.75 35.265625 C 69.691406 35.253906 69.617188 35.257812 69.554688 35.273438 C 69.5 35.285156 69.34375 35.320312 69.386719 35.40625 C 69.585938 35.785156 69.671875 36.21875 69.644531 36.648438 C 69.644531 36.683594 69.707031 36.703125 69.726562 36.710938 C 69.78125 36.726562 69.851562 36.730469 69.90625 36.722656 C 69.972656 36.71875 70.148438 36.699219 70.152344 36.605469 C 70.179688 36.15625 70.078125 35.710938 69.875 35.3125 C 69.855469 35.28125 69.777344 35.269531 69.75 35.265625 Z M 67.25 36.003906 C 67.195312 35.992188 67.128906 35.992188 67.070312 36 C 67.042969 36 66.804688 36.027344 66.824219 36.089844 C 66.921875 36.433594 66.8125 36.816406 66.542969 37.050781 C 66.515625 37.074219 66.558594 37.097656 66.574219 37.101562 C 66.617188 37.121094 66.683594 37.125 66.726562 37.125 C 66.824219 37.121094 66.957031 37.117188 67.035156 37.046875 C 67.3125 36.804688 67.433594 36.398438 67.328125 36.046875 C 67.320312 36.015625 67.277344 36.007812 67.25 36.003906 Z M 68.667969 35.953125 C 68.496094 35.34375 68.082031 34.820312 68.003906 34.179688 C 67.917969 33.492188 68.273438 32.886719 68.648438 32.339844 C 69.007812 31.816406 69.429688 31.300781 69.605469 30.675781 C 69.792969 30 69.5625 29.414062 69.3125 28.792969 C 69.191406 28.492188 69.078125 28.175781 69.0625 27.847656 C 69.039062 27.382812 69.214844 26.957031 69.453125 26.570312 C 69.898438 25.867188 70.53125 25.296875 70.804688 24.492188 C 71.097656 23.636719 70.761719 22.898438 70.585938 22.070312 C 70.488281 21.613281 70.492188 21.164062 70.660156 20.722656 C 70.828125 20.285156 71.101562 19.90625 71.378906 19.535156 C 71.441406 19.449219 70.976562 19.40625 70.886719 19.527344 C 70.414062 20.160156 69.957031 20.851562 70.015625 21.679688 C 70.066406 22.429688 70.460938 23.113281 70.429688 23.871094 C 70.355469 25.566406 68.164062 26.507812 68.617188 28.296875 C 68.789062 28.960938 69.207031 29.550781 69.175781 30.261719 C 69.140625 30.960938 68.703125 31.550781 68.316406 32.101562 C 67.957031 32.613281 67.570312 33.15625 67.496094 33.792969 C 67.414062 34.480469 67.777344 35.046875 68.035156 35.644531 C 68.167969 35.964844 68.269531 36.3125 68.222656 36.664062 C 68.160156 37.121094 67.875 37.484375 67.609375 37.84375 C 67.28125 38.289062 66.769531 39.234375 67.335938 39.703125 C 67.417969 39.773438 67.554688 39.765625 67.65625 39.742188 C 67.679688 39.738281 67.898438 39.675781 67.820312 39.613281 C 67.28125 39.167969 67.792969 38.273438 68.105469 37.851562 C 68.53125 37.269531 68.878906 36.695312 68.667969 35.953125 Z M 67.746094 29.445312 C 67.769531 29.632812 67.765625 29.820312 67.730469 29.996094 C 67.695312 30.175781 67.625 30.363281 67.539062 30.507812 C 67.398438 30.746094 67.886719 30.816406 67.992188 30.636719 C 68.210938 30.265625 68.308594 29.832031 68.253906 29.402344 C 68.238281 29.285156 68.085938 29.246094 67.984375 29.257812 C 67.898438 29.269531 67.730469 29.324219 67.746094 29.445312 Z M 70.101562 30.105469 C 70.285156 30.53125 70.3125 31.023438 70.183594 31.46875 C 70.152344 31.570312 70.300781 31.605469 70.375 31.605469 C 70.4375 31.609375 70.507812 31.601562 70.566406 31.578125 C 70.605469 31.5625 70.667969 31.535156 70.679688 31.492188 C 70.824219 30.996094 70.789062 30.472656 70.585938 30 C 70.570312 29.960938 70.496094 29.941406 70.464844 29.933594 C 70.402344 29.921875 70.328125 29.921875 70.265625 29.9375 C 70.191406 29.957031 70.058594 30.003906 70.101562 30.105469 Z M 66.488281 38.601562 C 66.40625 38.429688 66.425781 38.238281 66.484375 38.0625 C 66.519531 37.964844 66.566406 37.875 66.609375 37.785156 C 66.648438 37.707031 66.460938 37.707031 66.425781 37.707031 C 66.363281 37.707031 66.292969 37.714844 66.230469 37.730469 C 66.199219 37.742188 66.136719 37.753906 66.117188 37.785156 C 65.972656 38.078125 65.808594 38.449219 66.042969 38.742188 C 66.066406 38.769531 66.136719 38.773438 66.164062 38.777344 C 66.226562 38.78125 66.296875 38.777344 66.359375 38.765625 C 66.394531 38.761719 66.582031 38.726562 66.527344 38.660156 C 66.515625 38.640625 66.5 38.621094 66.488281 38.601562 Z M 67.816406 28.59375 C 67.875 28.601562 67.949219 28.601562 68.011719 28.585938 C 68.070312 28.574219 68.230469 28.527344 68.179688 28.4375 C 67.953125 28.046875 68.101562 27.574219 68.246094 27.179688 C 68.28125 27.085938 68.121094 27.0625 68.058594 27.0625 C 67.996094 27.0625 67.925781 27.066406 67.863281 27.089844 C 67.828125 27.105469 67.769531 27.125 67.753906 27.164062 C 67.589844 27.605469 67.445312 28.101562 67.695312 28.539062 C 67.710938 28.570312 67.785156 28.585938 67.816406 28.59375 Z M 66.652344 32.898438 C 66.707031 32.917969 66.777344 32.917969 66.835938 32.914062 C 66.894531 32.90625 66.960938 32.898438 67.011719 32.871094 C 67.039062 32.855469 67.082031 32.832031 67.082031 32.792969 C 67.0625 32.4375 67.195312 32.074219 67.453125 31.828125 C 67.53125 31.753906 67.417969 31.710938 67.351562 31.703125 C 67.289062 31.695312 67.21875 31.699219 67.15625 31.710938 C 67.109375 31.722656 67.046875 31.734375 67.007812 31.769531 C 66.71875 32.042969 66.550781 32.433594 66.574219 32.839844 C 66.574219 32.875 66.628906 32.890625 66.652344 32.898438 Z M 48.230469 22.355469 C 56.289062 24.09375 57.933594 31.710938 58.261719 35.128906 C 60.042969 35.25 61.996094 35.738281 63.550781 37.027344 L 64.566406 34.355469 C 61.175781 20.175781 48.230469 22.355469 48.230469 22.355469 Z M 66.5625 35.230469 C 66.28125 34.976562 66.144531 34.574219 66.214844 34.199219 C 66.21875 34.164062 66.253906 34.152344 66.285156 34.136719 C 66.339844 34.113281 66.402344 34.105469 66.460938 34.097656 C 66.519531 34.09375 66.585938 34.09375 66.640625 34.105469 C 66.652344 34.109375 66.726562 34.128906 66.722656 34.15625 C 66.652344 34.519531 66.777344 34.902344 67.050781 35.148438 C 67.113281 35.203125 66.90625 35.253906 66.878906 35.257812 C 66.816406 35.269531 66.746094 35.273438 66.683594 35.269531 C 66.648438 35.265625 66.59375 35.257812 66.5625 35.230469 " fill-opacity="1" fill-rule="nonzero"/></g></g></g><g clip-path="url(#id9)"><g clip-path="url(#id10)"><g clip-path="url(#id11)"><path fill="rgb(97.24884%, 60.389709%, 18.03894%)" d="M 69.777344 44.167969 C 69.777344 44.167969 72.046875 38.523438 78.859375 42.484375 C 78.859375 42.484375 75.050781 49.160156 69.777344 44.167969 Z M 65.515625 45.335938 C 77.070312 56.179688 82.742188 39.941406 82.742188 39.941406 C 70.03125 34.714844 65.515625 45.335938 65.515625 45.335938 " fill-opacity="1" fill-rule="nonzero"/></g></g></g><g clip-path="url(#id12)"><g clip-path="url(#id13)"><g clip-path="url(#id14)"><g clip-path="url(#id15)"><g clip-path="url(#id16)"><path fill="rgb(97.24884%, 60.389709%, 18.03894%)" d="M 93.9375 32.164062 C 93.679688 33.597656 92.324219 34.550781 90.910156 34.292969 C 89.496094 34.039062 88.558594 32.671875 88.816406 31.242188 C 89.074219 29.808594 90.429688 28.859375 91.84375 29.113281 C 93.257812 29.367188 94.195312 30.734375 93.9375 32.164062 Z M 50.289062 23.496094 C 50.042969 24.863281 48.75 25.769531 47.398438 25.527344 C 46.050781 25.285156 45.15625 23.980469 45.402344 22.617188 C 45.648438 21.25 46.941406 20.34375 48.292969 20.585938 C 49.640625 20.828125 50.535156 22.132812 50.289062 23.496094 Z M 75.050781 13.792969 C 74.765625 15.363281 73.277344 16.410156 71.722656 16.128906 C 70.171875 15.847656 69.140625 14.347656 69.425781 12.773438 C 69.707031 11.203125 71.199219 10.15625 72.75 10.4375 C 74.304688 10.71875 75.332031 12.21875 75.050781 13.792969 Z M 85.414062 29.417969 C 85.414062 29.5 85.398438 29.578125 85.359375 29.652344 C 85.328125 29.722656 85.28125 29.785156 85.21875 29.832031 C 85.167969 29.890625 85.101562 29.929688 85.027344 29.953125 C 84.800781 30.015625 84.574219 30.074219 84.347656 30.136719 C 84.246094 30.171875 84.144531 30.183594 84.039062 30.164062 C 83.988281 30.148438 83.9375 30.132812 83.886719 30.113281 C 83.746094 30.054688 83.644531 29.921875 83.589844 29.78125 C 83.558594 29.707031 83.546875 29.628906 83.558594 29.550781 C 83.554688 29.46875 83.574219 29.390625 83.613281 29.316406 C 83.644531 29.242188 83.691406 29.183594 83.753906 29.136719 C 83.804688 29.078125 83.867188 29.039062 83.941406 29.011719 C 84.171875 28.953125 84.398438 28.890625 84.625 28.832031 C 84.726562 28.792969 84.828125 28.785156 84.933594 28.804688 C 84.984375 28.820312 85.03125 28.835938 85.082031 28.851562 C 85.226562 28.914062 85.324219 29.046875 85.382812 29.1875 C 85.414062 29.261719 85.421875 29.339844 85.414062 29.417969 Z M 82.769531 30.175781 C 82.792969 30.25 82.796875 30.328125 82.78125 30.410156 C 82.769531 30.492188 82.738281 30.5625 82.6875 30.628906 C 82.652344 30.695312 82.601562 30.753906 82.535156 30.796875 C 82.445312 30.855469 82.347656 30.90625 82.25 30.949219 C 82.199219 30.976562 82.148438 30.996094 82.09375 31.015625 C 81.992188 31.046875 81.890625 31.070312 81.785156 31.085938 C 81.734375 31.097656 81.679688 31.101562 81.625 31.101562 C 81.515625 31.113281 81.414062 31.09375 81.316406 31.046875 C 81.273438 31.019531 81.230469 30.992188 81.1875 30.960938 C 81.109375 30.894531 81.050781 30.8125 81.015625 30.714844 C 81.003906 30.664062 80.992188 30.613281 80.984375 30.5625 C 80.972656 30.480469 80.984375 30.402344 81.015625 30.324219 C 81.03125 30.246094 81.070312 30.179688 81.125 30.117188 C 81.171875 30.058594 81.230469 30.011719 81.304688 29.980469 C 81.367188 29.9375 81.441406 29.914062 81.519531 29.910156 C 81.566406 29.910156 81.609375 29.90625 81.65625 29.898438 C 81.714844 29.882812 81.769531 29.859375 81.824219 29.835938 C 81.835938 29.828125 81.847656 29.824219 81.859375 29.8125 C 81.945312 29.753906 82.042969 29.71875 82.144531 29.710938 C 82.199219 29.710938 82.25 29.714844 82.304688 29.714844 C 82.410156 29.734375 82.503906 29.78125 82.582031 29.851562 C 82.617188 29.886719 82.652344 29.925781 82.683594 29.964844 C 82.730469 30.027344 82.761719 30.097656 82.769531 30.175781 Z M 73.753906 37.023438 C 73.777344 37.09375 73.78125 37.167969 73.761719 37.242188 C 73.753906 37.320312 73.722656 37.390625 73.675781 37.449219 C 73.644531 37.515625 73.59375 37.566406 73.53125 37.605469 C 73.5 37.625 73.46875 37.648438 73.4375 37.671875 C 73.414062 37.695312 73.394531 37.722656 73.371094 37.75 C 73.355469 37.78125 73.339844 37.816406 73.324219 37.851562 C 73.28125 37.941406 73.21875 38.015625 73.140625 38.070312 C 73.097656 38.09375 73.054688 38.117188 73.011719 38.136719 C 72.917969 38.171875 72.820312 38.183594 72.722656 38.164062 C 72.675781 38.148438 72.628906 38.132812 72.578125 38.117188 C 72.511719 38.089844 72.457031 38.042969 72.410156 37.984375 C 72.359375 37.933594 72.320312 37.875 72.296875 37.804688 C 72.269531 37.734375 72.261719 37.660156 72.269531 37.585938 C 72.265625 37.507812 72.285156 37.4375 72.320312 37.367188 C 72.339844 37.316406 72.363281 37.265625 72.390625 37.21875 C 72.441406 37.136719 72.492188 37.050781 72.554688 36.976562 C 72.617188 36.902344 72.695312 36.835938 72.769531 36.773438 C 72.808594 36.738281 72.851562 36.710938 72.898438 36.683594 C 72.976562 36.625 73.066406 36.59375 73.164062 36.582031 C 73.214844 36.585938 73.265625 36.585938 73.316406 36.589844 C 73.414062 36.609375 73.5 36.648438 73.578125 36.714844 C 73.609375 36.75 73.640625 36.785156 73.671875 36.824219 C 73.71875 36.882812 73.746094 36.949219 73.753906 37.023438 Z M 80.332031 32.226562 C 80.355469 32.300781 80.355469 32.378906 80.339844 32.460938 C 80.335938 32.492188 80.328125 32.519531 80.316406 32.550781 C 80.296875 32.625 80.273438 32.699219 80.242188 32.769531 C 80.230469 32.796875 80.21875 32.820312 80.203125 32.847656 C 80.164062 32.910156 80.125 32.976562 80.078125 33.035156 C 80.019531 33.113281 79.941406 33.183594 79.863281 33.242188 C 79.84375 33.257812 79.824219 33.269531 79.800781 33.28125 C 79.742188 33.316406 79.675781 33.355469 79.605469 33.378906 C 79.507812 33.417969 79.402344 33.425781 79.300781 33.40625 C 79.25 33.390625 79.199219 33.375 79.148438 33.359375 C 79.054688 33.3125 78.976562 33.246094 78.917969 33.160156 C 78.894531 33.113281 78.871094 33.070312 78.847656 33.023438 C 78.820312 32.949219 78.808594 32.871094 78.820312 32.792969 C 78.816406 32.710938 78.832031 32.632812 78.871094 32.558594 C 78.902344 32.488281 78.949219 32.425781 79.011719 32.378906 C 79.054688 32.332031 79.109375 32.300781 79.167969 32.273438 C 79.167969 32.269531 79.171875 32.265625 79.171875 32.261719 C 79.171875 32.257812 79.175781 32.253906 79.175781 32.25 C 79.195312 32.144531 79.238281 32.050781 79.308594 31.96875 C 79.347656 31.933594 79.382812 31.898438 79.421875 31.867188 C 79.507812 31.804688 79.601562 31.769531 79.707031 31.761719 C 79.757812 31.761719 79.8125 31.765625 79.863281 31.765625 C 79.945312 31.777344 80.015625 31.808594 80.078125 31.859375 C 80.148438 31.894531 80.203125 31.945312 80.242188 32.015625 C 80.292969 32.078125 80.320312 32.148438 80.332031 32.226562 Z M 78.222656 32.449219 C 78.234375 32.53125 78.222656 32.609375 78.191406 32.6875 C 78.171875 32.761719 78.136719 32.832031 78.082031 32.890625 C 77.988281 33.003906 77.878906 33.105469 77.765625 33.195312 C 77.652344 33.285156 77.527344 33.351562 77.398438 33.414062 C 77.300781 33.453125 77.195312 33.460938 77.089844 33.441406 C 77.039062 33.425781 76.992188 33.410156 76.941406 33.394531 C 76.847656 33.347656 76.769531 33.28125 76.710938 33.195312 C 76.6875 33.152344 76.664062 33.105469 76.640625 33.0625 C 76.609375 32.984375 76.601562 32.910156 76.613281 32.828125 C 76.609375 32.746094 76.625 32.671875 76.664062 32.597656 C 76.695312 32.523438 76.742188 32.460938 76.804688 32.414062 C 76.839844 32.378906 76.882812 32.347656 76.925781 32.324219 C 76.988281 32.289062 77.042969 32.25 77.097656 32.207031 C 77.128906 32.175781 77.15625 32.148438 77.183594 32.117188 C 77.253906 32.039062 77.335938 31.980469 77.429688 31.941406 C 77.480469 31.929688 77.53125 31.917969 77.582031 31.910156 C 77.6875 31.898438 77.792969 31.917969 77.890625 31.964844 C 77.933594 31.992188 77.976562 32.019531 78.019531 32.050781 C 78.078125 32.097656 78.125 32.160156 78.15625 32.230469 C 78.195312 32.296875 78.21875 32.371094 78.222656 32.449219 Z M 77.609375 35.4375 C 77.621094 35.597656 77.566406 35.753906 77.46875 35.878906 C 77.285156 36.109375 77.101562 36.339844 76.917969 36.574219 C 76.820312 36.695312 76.671875 36.761719 76.523438 36.78125 C 76.363281 36.800781 76.207031 36.738281 76.085938 36.640625 C 76.023438 36.589844 75.976562 36.53125 75.949219 36.457031 C 75.90625 36.390625 75.882812 36.320312 75.878906 36.238281 C 75.867188 36.078125 75.921875 35.921875 76.019531 35.796875 C 76.203125 35.566406 76.386719 35.335938 76.570312 35.101562 C 76.667969 34.980469 76.816406 34.914062 76.964844 34.894531 C 77.125 34.871094 77.28125 34.9375 77.40625 35.035156 C 77.464844 35.085938 77.511719 35.144531 77.539062 35.214844 C 77.582031 35.28125 77.605469 35.355469 77.609375 35.4375 Z M 75.34375 35.113281 C 75.371094 35.191406 75.371094 35.269531 75.355469 35.347656 C 75.34375 35.429688 75.3125 35.503906 75.261719 35.566406 C 75.230469 35.632812 75.179688 35.683594 75.121094 35.726562 C 75.0625 35.785156 75.007812 35.851562 74.957031 35.917969 C 74.921875 35.980469 74.890625 36.042969 74.863281 36.109375 C 74.800781 36.253906 74.667969 36.355469 74.53125 36.414062 C 74.429688 36.449219 74.328125 36.460938 74.222656 36.441406 C 74.171875 36.425781 74.121094 36.410156 74.070312 36.390625 C 74 36.359375 73.9375 36.3125 73.890625 36.25 C 73.835938 36.199219 73.796875 36.132812 73.773438 36.058594 C 73.742188 35.984375 73.730469 35.90625 73.742188 35.828125 C 73.738281 35.746094 73.757812 35.667969 73.796875 35.59375 C 73.867188 35.425781 73.964844 35.269531 74.070312 35.125 C 74.171875 34.984375 74.300781 34.863281 74.4375 34.753906 C 74.558594 34.652344 74.730469 34.636719 74.878906 34.65625 C 75.035156 34.675781 75.167969 34.777344 75.257812 34.902344 C 75.304688 34.964844 75.335938 35.035156 75.34375 35.113281 Z M 55.1875 25.589844 C 55.105469 25.601562 55.03125 25.589844 54.957031 25.558594 C 54.878906 25.539062 54.808594 25.503906 54.75 25.449219 C 54.722656 25.425781 54.691406 25.402344 54.660156 25.382812 C 54.570312 25.335938 54.492188 25.269531 54.433594 25.183594 C 54.410156 25.140625 54.390625 25.09375 54.367188 25.050781 C 54.328125 24.949219 54.320312 24.84375 54.339844 24.738281 C 54.355469 24.6875 54.371094 24.636719 54.390625 24.585938 C 54.421875 24.511719 54.46875 24.453125 54.527344 24.402344 C 54.582031 24.347656 54.644531 24.304688 54.71875 24.28125 C 54.796875 24.25 54.871094 24.242188 54.949219 24.25 C 55.03125 24.246094 55.105469 24.265625 55.179688 24.304688 C 55.261719 24.347656 55.339844 24.402344 55.417969 24.457031 C 55.453125 24.480469 55.488281 24.507812 55.523438 24.539062 C 55.601562 24.605469 55.65625 24.691406 55.695312 24.789062 C 55.703125 24.839844 55.714844 24.886719 55.726562 24.9375 C 55.734375 25.046875 55.71875 25.152344 55.671875 25.253906 C 55.640625 25.296875 55.613281 25.339844 55.585938 25.382812 C 55.535156 25.445312 55.476562 25.488281 55.40625 25.519531 C 55.339844 25.5625 55.269531 25.585938 55.1875 25.589844 Z M 62.65625 33.292969 C 62.644531 33.183594 62.664062 33.082031 62.710938 32.980469 C 62.738281 32.9375 62.765625 32.894531 62.796875 32.851562 C 62.863281 32.773438 62.945312 32.714844 63.042969 32.679688 C 63.09375 32.667969 63.140625 32.65625 63.191406 32.644531 C 63.273438 32.632812 63.351562 32.644531 63.425781 32.675781 C 63.503906 32.691406 63.570312 32.730469 63.628906 32.785156 C 63.691406 32.832031 63.738281 32.894531 63.765625 32.964844 C 63.804688 33.027344 63.828125 33.09375 63.832031 33.167969 C 63.839844 33.1875 63.847656 33.210938 63.855469 33.230469 C 63.859375 33.234375 63.863281 33.238281 63.863281 33.242188 C 63.914062 33.300781 63.953125 33.363281 63.980469 33.4375 C 63.992188 33.488281 64.003906 33.539062 64.015625 33.589844 C 64.023438 33.699219 64.003906 33.804688 63.957031 33.902344 C 63.929688 33.945312 63.902344 33.988281 63.875 34.035156 C 63.824219 34.09375 63.765625 34.140625 63.695312 34.171875 C 63.628906 34.214844 63.554688 34.238281 63.476562 34.242188 C 63.394531 34.25 63.316406 34.242188 63.242188 34.210938 C 63.167969 34.191406 63.097656 34.15625 63.039062 34.101562 C 62.980469 34.039062 62.921875 33.976562 62.875 33.902344 C 62.828125 33.832031 62.789062 33.75 62.753906 33.671875 C 62.734375 33.636719 62.722656 33.597656 62.710938 33.558594 C 62.691406 33.492188 62.679688 33.421875 62.664062 33.355469 C 62.660156 33.335938 62.65625 33.316406 62.65625 33.292969 Z M 56.308594 26.273438 C 56.296875 26.164062 56.316406 26.058594 56.363281 25.960938 C 56.390625 25.917969 56.417969 25.875 56.449219 25.832031 C 56.496094 25.769531 56.554688 25.722656 56.628906 25.691406 C 56.691406 25.652344 56.765625 25.628906 56.84375 25.625 C 56.925781 25.613281 57.003906 25.621094 57.078125 25.65625 C 57.15625 25.671875 57.222656 25.707031 57.28125 25.761719 C 57.402344 25.847656 57.519531 25.929688 57.636719 26.015625 C 57.714844 26.082031 57.773438 26.164062 57.808594 26.261719 C 57.820312 26.3125 57.832031 26.363281 57.84375 26.414062 C 57.851562 26.523438 57.832031 26.628906 57.785156 26.726562 C 57.757812 26.769531 57.730469 26.8125 57.703125 26.859375 C 57.652344 26.917969 57.59375 26.964844 57.523438 26.996094 C 57.457031 27.039062 57.382812 27.0625 57.304688 27.066406 C 57.222656 27.074219 57.144531 27.066406 57.070312 27.035156 C 56.996094 27.015625 56.925781 26.980469 56.867188 26.925781 C 56.75 26.839844 56.628906 26.757812 56.511719 26.675781 C 56.433594 26.605469 56.375 26.523438 56.339844 26.425781 C 56.328125 26.375 56.316406 26.324219 56.308594 26.273438 Z M 58.039062 27.933594 C 58.003906 27.832031 57.996094 27.730469 58.015625 27.625 C 58.03125 27.574219 58.046875 27.523438 58.0625 27.472656 C 58.109375 27.375 58.175781 27.296875 58.257812 27.238281 C 58.304688 27.214844 58.347656 27.191406 58.394531 27.167969 C 58.46875 27.136719 58.546875 27.125 58.625 27.136719 C 58.703125 27.132812 58.78125 27.148438 58.851562 27.1875 C 58.925781 27.222656 58.984375 27.269531 59.03125 27.332031 C 59.089844 27.382812 59.128906 27.445312 59.152344 27.523438 C 59.164062 27.566406 59.179688 27.613281 59.199219 27.65625 C 59.210938 27.675781 59.226562 27.699219 59.242188 27.71875 C 59.246094 27.722656 59.25 27.730469 59.257812 27.734375 C 59.332031 27.800781 59.390625 27.882812 59.425781 27.980469 C 59.4375 28.03125 59.449219 28.082031 59.460938 28.132812 C 59.46875 28.242188 59.449219 28.347656 59.402344 28.445312 C 59.375 28.488281 59.347656 28.53125 59.320312 28.578125 C 59.269531 28.636719 59.210938 28.683594 59.140625 28.714844 C 59.074219 28.757812 59 28.78125 58.921875 28.785156 C 58.839844 28.792969 58.761719 28.785156 58.6875 28.753906 C 58.613281 28.734375 58.542969 28.699219 58.484375 28.644531 C 58.414062 28.582031 58.355469 28.511719 58.296875 28.441406 C 58.265625 28.40625 58.242188 28.367188 58.21875 28.328125 C 58.179688 28.269531 58.148438 28.203125 58.117188 28.136719 C 58.105469 28.117188 58.097656 28.09375 58.085938 28.074219 C 58.066406 28.027344 58.050781 27.980469 58.039062 27.933594 Z M 61.078125 30.066406 C 61.066406 29.957031 61.085938 29.851562 61.132812 29.75 C 61.160156 29.707031 61.191406 29.664062 61.21875 29.621094 C 61.285156 29.542969 61.367188 29.484375 61.464844 29.449219 C 61.515625 29.4375 61.566406 29.425781 61.613281 29.414062 C 61.695312 29.402344 61.773438 29.414062 61.847656 29.445312 C 61.925781 29.460938 61.992188 29.5 62.050781 29.554688 C 62.113281 29.601562 62.160156 29.664062 62.1875 29.734375 C 62.226562 29.800781 62.25 29.871094 62.253906 29.949219 C 62.257812 29.957031 62.261719 29.960938 62.261719 29.96875 C 62.265625 29.972656 62.265625 29.976562 62.269531 29.980469 C 62.328125 30.066406 62.363281 30.160156 62.371094 30.265625 C 62.367188 30.320312 62.367188 30.375 62.363281 30.425781 C 62.34375 30.53125 62.300781 30.628906 62.230469 30.710938 C 62.195312 30.742188 62.15625 30.777344 62.117188 30.8125 C 62.054688 30.859375 61.984375 30.890625 61.910156 30.898438 C 61.832031 30.925781 61.753906 30.929688 61.675781 30.910156 C 61.59375 30.898438 61.523438 30.867188 61.460938 30.820312 C 61.390625 30.78125 61.335938 30.730469 61.292969 30.664062 C 61.277344 30.640625 61.265625 30.617188 61.25 30.589844 C 61.214844 30.523438 61.175781 30.457031 61.148438 30.382812 C 61.140625 30.355469 61.132812 30.328125 61.125 30.300781 C 61.105469 30.222656 61.085938 30.144531 61.078125 30.066406 Z M 59.609375 29.835938 C 59.597656 29.726562 59.617188 29.621094 59.664062 29.523438 C 59.691406 29.480469 59.71875 29.4375 59.75 29.394531 C 59.816406 29.3125 59.898438 29.257812 59.996094 29.21875 C 60.046875 29.207031 60.09375 29.195312 60.144531 29.183594 C 60.226562 29.175781 60.304688 29.183594 60.378906 29.214844 C 60.457031 29.234375 60.523438 29.269531 60.582031 29.324219 C 60.644531 29.375 60.691406 29.433594 60.71875 29.507812 C 60.757812 29.566406 60.777344 29.632812 60.785156 29.703125 C 60.8125 29.816406 60.851562 29.929688 60.898438 30.039062 C 60.933594 30.140625 60.941406 30.242188 60.925781 30.351562 C 60.910156 30.402344 60.890625 30.453125 60.875 30.503906 C 60.828125 30.597656 60.765625 30.675781 60.679688 30.734375 C 60.632812 30.757812 60.589844 30.78125 60.542969 30.804688 C 60.46875 30.835938 60.394531 30.847656 60.316406 30.835938 C 60.234375 30.839844 60.15625 30.824219 60.085938 30.785156 C 60.011719 30.753906 59.953125 30.707031 59.90625 30.644531 C 59.851562 30.589844 59.808594 30.527344 59.785156 30.449219 C 59.699219 30.253906 59.648438 30.046875 59.609375 29.835938 Z M 62.152344 31.589844 C 62.210938 31.636719 62.257812 31.699219 62.285156 31.769531 C 62.328125 31.835938 62.351562 31.910156 62.355469 31.988281 C 62.355469 32.003906 62.359375 32.015625 62.359375 32.027344 C 62.371094 32.054688 62.378906 32.085938 62.394531 32.109375 C 62.40625 32.148438 62.414062 32.183594 62.417969 32.21875 C 62.460938 32.269531 62.496094 32.328125 62.519531 32.390625 C 62.53125 32.441406 62.542969 32.492188 62.550781 32.542969 C 62.5625 32.652344 62.542969 32.757812 62.496094 32.855469 C 62.46875 32.898438 62.441406 32.941406 62.410156 32.988281 C 62.363281 33.046875 62.304688 33.09375 62.230469 33.125 C 62.167969 33.167969 62.09375 33.191406 62.015625 33.195312 C 61.933594 33.203125 61.855469 33.195312 61.78125 33.164062 C 61.703125 33.144531 61.636719 33.109375 61.578125 33.054688 C 61.503906 32.988281 61.4375 32.914062 61.386719 32.832031 C 61.34375 32.769531 61.3125 32.699219 61.28125 32.632812 C 61.269531 32.613281 61.261719 32.589844 61.25 32.5625 C 61.242188 32.539062 61.234375 32.511719 61.226562 32.484375 C 61.210938 32.410156 61.191406 32.339844 61.179688 32.261719 C 61.167969 32.15625 61.175781 32.046875 61.183594 31.9375 C 61.203125 31.832031 61.246094 31.738281 61.316406 31.65625 C 61.355469 31.621094 61.390625 31.585938 61.429688 31.554688 C 61.492188 31.503906 61.5625 31.476562 61.636719 31.464844 C 61.6875 31.445312 61.738281 31.441406 61.792969 31.453125 C 61.871094 31.449219 61.949219 31.464844 62.023438 31.503906 C 62.066406 31.53125 62.109375 31.558594 62.152344 31.589844 Z M 60.359375 31.820312 C 60.445312 32.011719 60.527344 32.203125 60.613281 32.394531 C 60.648438 32.496094 60.660156 32.597656 60.640625 32.703125 C 60.625 32.753906 60.605469 32.804688 60.589844 32.855469 C 60.5625 32.925781 60.515625 32.988281 60.457031 33.039062 C 60.414062 33.105469 60.355469 33.164062 60.292969 33.214844 C 60.230469 33.261719 60.160156 33.292969 60.082031 33.300781 C 60.007812 33.328125 59.929688 33.328125 59.851562 33.3125 C 59.769531 33.300781 59.699219 33.269531 59.636719 33.222656 C 59.566406 33.183594 59.511719 33.132812 59.46875 33.066406 C 59.382812 32.917969 59.3125 32.765625 59.273438 32.597656 C 59.25 32.488281 59.222656 32.382812 59.214844 32.269531 C 59.207031 32.152344 59.214844 32.039062 59.222656 31.921875 C 59.234375 31.84375 59.261719 31.769531 59.3125 31.707031 C 59.347656 31.636719 59.402344 31.582031 59.46875 31.539062 C 59.511719 31.515625 59.558594 31.492188 59.601562 31.46875 C 59.652344 31.457031 59.703125 31.445312 59.75 31.433594 C 59.832031 31.421875 59.910156 31.433594 59.984375 31.464844 C 60.039062 31.472656 60.085938 31.496094 60.125 31.53125 C 60.191406 31.566406 60.25 31.621094 60.289062 31.6875 C 60.3125 31.730469 60.335938 31.777344 60.359375 31.820312 Z M 56.816406 38.503906 C 64.582031 37.171875 64.734375 43.257812 64.734375 43.257812 C 58.046875 46.089844 56.816406 38.503906 56.816406 38.503906 Z M 53.363281 35.566406 C 52.917969 49.683594 66.371094 46.210938 66.371094 46.210938 C 67.515625 31.683594 53.363281 35.566406 53.363281 35.566406 " fill-opacity="1" fill-rule="nonzero"/></g></g></g></g></g><g clip-path="url(#id17)"><g clip-path="url(#id18)"><g clip-path="url(#id19)"><g clip-path="url(#id20)"><g clip-path="url(#id21)"><path fill="rgb(46.269226%, 26.669312%, 5.879211%)" d="M 68.3125 47.777344 C 68.058594 49.183594 66.722656 50.121094 65.328125 49.871094 C 63.9375 49.621094 63.015625 48.273438 63.269531 46.863281 C 63.523438 45.457031 64.859375 44.519531 66.25 44.769531 C 67.644531 45.019531 68.566406 46.367188 68.3125 47.777344 " fill-opacity="1" fill-rule="nonzero"/></g></g></g></g></g><g clip-path="url(#id22)"><g clip-path="url(#id23)"><g clip-path="url(#id24)"><path fill="rgb(97.24884%, 60.389709%, 18.03894%)" d="M 45.738281 41.832031 C 42.582031 43.421875 44.492188 47.222656 44.492188 47.222656 C 46.480469 50.726562 50.507812 55.132812 52.933594 57.5625 C 55.359375 59.996094 58.359375 59.617188 59.355469 56.035156 C 60.351562 52.453125 47.683594 40.851562 45.738281 41.832031 Z M 41.929688 46.707031 C 43.347656 48.367188 49.566406 60.78125 47.289062 63.714844 C 45.011719 66.648438 42.089844 65.863281 40.761719 62.695312 C 39.492188 59.671875 37.261719 51.855469 37.5625 46.9375 C 37.59375 46.433594 37.863281 45.96875 38.300781 45.710938 C 39.074219 45.261719 40.425781 44.941406 41.929688 46.707031 " fill-opacity="1" fill-rule="nonzero"/></g></g></g><g clip-path="url(#id25)"><g clip-path="url(#id26)"><g clip-path="url(#id27)"><path fill="rgb(46.269226%, 26.669312%, 5.879211%)" d="M 55.445312 48.554688 C 55.542969 48.734375 55.640625 48.921875 55.703125 49.121094 C 55.726562 49.203125 55.761719 49.296875 55.761719 49.382812 C 55.761719 49.382812 55.765625 49.464844 55.777344 49.449219 C 55.757812 49.480469 55.644531 49.5 55.617188 49.507812 C 55.234375 49.617188 54.828125 49.632812 54.445312 49.746094 C 54.0625 49.863281 53.691406 50.007812 53.296875 50.070312 C 53.023438 50.109375 52.765625 50.160156 52.515625 50.238281 C 52.753906 49.679688 53.011719 49.125 53.324219 48.601562 C 53.539062 48.238281 53.773438 47.878906 54.070312 47.578125 C 54.195312 47.453125 54.347656 47.3125 54.519531 47.25 C 54.523438 47.25 54.527344 47.25 54.53125 47.246094 C 54.539062 47.253906 54.546875 47.261719 54.554688 47.269531 C 54.617188 47.34375 54.683594 47.414062 54.742188 47.488281 C 55.007812 47.820312 55.246094 48.175781 55.445312 48.554688 Z M 50.851562 53.136719 C 50.769531 53.457031 50.683594 53.785156 50.515625 54.078125 C 50.441406 54.210938 50.351562 54.335938 50.230469 54.429688 C 50.128906 54.507812 50.074219 54.488281 49.953125 54.445312 C 49.3125 54.199219 48.867188 53.503906 48.589844 52.910156 C 48.449219 52.613281 48.351562 52.269531 48.460938 51.945312 C 48.558594 51.644531 48.804688 51.570312 49.09375 51.5625 C 49.492188 51.546875 49.882812 51.5625 50.277344 51.515625 C 50.632812 51.472656 50.980469 51.394531 51.324219 51.296875 C 51.167969 51.910156 51.011719 52.523438 50.851562 53.136719 Z M 56 48.089844 C 55.765625 47.691406 55.496094 47.28125 55.164062 46.960938 C 54.34375 46.167969 53.375 47.21875 52.921875 47.867188 C 52.3125 48.734375 51.898438 49.71875 51.503906 50.695312 C 51.5 50.699219 51.5 50.703125 51.5 50.707031 C 51.476562 50.734375 51.460938 50.765625 51.453125 50.796875 C 51.4375 50.8125 51.421875 50.824219 51.410156 50.839844 C 51.40625 50.839844 51.402344 50.839844 51.398438 50.839844 C 51 50.964844 50.585938 51.054688 50.167969 51.085938 C 49.746094 51.113281 49.3125 51.058594 48.894531 51.144531 C 48.464844 51.234375 48.011719 51.449219 47.800781 51.851562 C 47.613281 52.207031 47.640625 52.628906 47.78125 52.996094 C 47.933594 53.390625 48.175781 53.773438 48.433594 54.101562 C 48.675781 54.414062 48.984375 54.691406 49.355469 54.84375 C 50.257812 55.21875 51.078125 54.519531 51.386719 53.707031 C 51.5625 53.25 51.664062 52.765625 51.785156 52.292969 C 51.824219 52.132812 51.867188 51.96875 51.90625 51.808594 C 52.019531 53.179688 53.300781 54.953125 53.851562 55.65625 C 54 55.847656 54.320312 56.09375 54.5625 56.0625 L 55.179688 56 C 53.722656 54.921875 52.570312 51.9375 52.203125 51.085938 C 52.214844 51.078125 52.226562 51.070312 52.238281 51.0625 C 52.960938 51.410156 55.292969 52.855469 56.550781 54.777344 C 56.550781 54.777344 56.609375 53.902344 56.359375 53.445312 C 56.132812 53.035156 53.828125 51.199219 52.519531 50.894531 C 52.699219 50.796875 52.886719 50.71875 53.089844 50.675781 C 53.515625 50.585938 53.9375 50.53125 54.355469 50.398438 C 54.554688 50.332031 54.753906 50.265625 54.960938 50.210938 C 55.171875 50.152344 55.390625 50.132812 55.605469 50.09375 C 55.835938 50.054688 56.082031 50.011719 56.289062 49.890625 C 56.511719 49.761719 56.558594 49.554688 56.523438 49.3125 C 56.464844 48.878906 56.21875 48.460938 56 48.089844 Z M 46.171875 52.734375 C 46.214844 52.886719 46.25 53.039062 46.273438 53.195312 C 46.320312 53.507812 46.3125 53.824219 46.253906 54.132812 C 46.132812 54.753906 45.742188 55.46875 45.097656 55.65625 C 44.707031 55.773438 44.277344 55.5625 43.886719 55.519531 C 43.660156 55.496094 43.4375 55.503906 43.214844 55.535156 C 44.179688 54.554688 44.925781 53.339844 46.042969 52.515625 C 46.035156 52.519531 46.054688 52.507812 46.078125 52.488281 C 46.085938 52.5 46.089844 52.511719 46.097656 52.523438 C 46.125 52.59375 46.148438 52.664062 46.171875 52.734375 Z M 39.988281 57.808594 C 39.757812 57.949219 39.476562 58.054688 39.199219 58.035156 C 38.921875 58.019531 38.773438 57.828125 38.640625 57.597656 C 38.335938 57.082031 38.0625 56.546875 37.808594 56.003906 C 38.535156 55.757812 39.292969 55.628906 40.0625 55.628906 C 40.480469 55.628906 40.902344 55.671875 41.3125 55.753906 C 41.519531 55.792969 41.722656 55.851562 41.910156 55.933594 C 41.6875 56.121094 41.484375 56.332031 41.292969 56.550781 C 40.894531 57.003906 40.515625 57.496094 39.988281 57.808594 Z M 45.410156 52.464844 C 45.089844 52.742188 44.789062 53.042969 44.507812 53.359375 C 43.886719 54.054688 43.328125 54.8125 42.652344 55.460938 C 42.640625 55.464844 42.628906 55.46875 42.617188 55.476562 C 42.53125 55.515625 42.445312 55.5625 42.363281 55.609375 C 41.722656 55.230469 40.859375 55.171875 40.152344 55.160156 C 39.203125 55.144531 38.253906 55.3125 37.371094 55.65625 C 37.25 55.703125 37.15625 55.835938 37.214844 55.964844 C 37.519531 56.625 37.84375 57.289062 38.226562 57.90625 C 38.386719 58.171875 38.59375 58.382812 38.898438 58.464844 C 39.195312 58.550781 39.515625 58.507812 39.808594 58.414062 C 40.445312 58.210938 40.941406 57.71875 41.367188 57.226562 C 41.652344 56.898438 41.933594 56.542969 42.273438 56.261719 C 42.070312 57.253906 41.648438 59.917969 42.253906 61.128906 C 42.253906 61.128906 42.886719 62.039062 43.632812 61.929688 C 43.632812 61.929688 42.269531 58.402344 42.570312 56.277344 C 42.589844 56.273438 42.609375 56.265625 42.628906 56.253906 C 43.328125 57.023438 45.523438 59.53125 45.8125 61.160156 C 45.8125 61.160156 46.335938 60.929688 46.082031 60 C 45.835938 59.113281 44.277344 56.738281 42.851562 56.039062 C 43.261719 55.898438 43.683594 55.886719 44.113281 55.984375 C 44.542969 56.085938 44.945312 56.15625 45.371094 55.996094 C 46.09375 55.71875 46.578125 54.992188 46.75 54.257812 C 46.828125 53.90625 46.84375 53.539062 46.800781 53.183594 C 46.78125 53.007812 46.746094 52.835938 46.695312 52.667969 C 46.648438 52.503906 46.59375 52.28125 46.472656 52.15625 C 46.140625 51.8125 45.667969 52.246094 45.410156 52.464844 " fill-opacity="1" fill-rule="nonzero"/></g></g></g><g clip-path="url(#id28)"><g clip-path="url(#id29)"><g clip-path="url(#id30)"><g clip-path="url(#id31)"><g clip-path="url(#id32)"><path fill="rgb(46.269226%, 26.669312%, 5.879211%)" d="M 53.625 53.242188 C 53.613281 53.242188 53.601562 53.246094 53.59375 53.25 C 53.601562 53.25 53.613281 53.246094 53.625 53.242188 Z M 54.382812 52.722656 C 54.464844 52.773438 54.449219 52.902344 54.378906 52.96875 C 54.265625 53.074219 54.152344 53.179688 54.042969 53.285156 C 53.984375 53.335938 53.929688 53.390625 53.875 53.441406 C 53.792969 53.515625 53.714844 53.566406 53.609375 53.59375 C 53.507812 53.617188 53.414062 53.546875 53.414062 53.449219 C 53.414062 53.40625 53.445312 53.351562 53.476562 53.320312 C 53.507812 53.289062 53.542969 53.269531 53.582031 53.253906 C 53.605469 53.234375 53.628906 53.210938 53.652344 53.191406 C 53.699219 53.144531 53.746094 53.097656 53.792969 53.054688 C 53.894531 52.960938 53.996094 52.867188 54.09375 52.773438 C 54.175781 52.695312 54.296875 52.667969 54.382812 52.722656 Z M 43.886719 60.53125 C 43.992188 60.535156 44.09375 60.5 44.191406 60.457031 C 44.273438 60.417969 44.359375 60.375 44.449219 60.363281 C 44.46875 60.359375 44.492188 60.359375 44.511719 60.363281 C 44.539062 60.367188 44.570312 60.351562 44.574219 60.320312 C 44.578125 60.285156 44.546875 60.234375 44.523438 60.210938 C 44.457031 60.128906 44.359375 60.050781 44.253906 60.039062 C 44.035156 60.007812 43.867188 60.175781 43.660156 60.203125 C 43.648438 60.207031 43.636719 60.207031 43.625 60.207031 C 43.597656 60.203125 43.566406 60.214844 43.5625 60.246094 C 43.558594 60.285156 43.59375 60.335938 43.613281 60.359375 C 43.652344 60.40625 43.695312 60.449219 43.75 60.480469 C 43.789062 60.503906 43.835938 60.53125 43.886719 60.53125 Z M 39.753906 46.292969 C 39.753906 46.292969 38.992188 46.242188 38.894531 47.765625 C 38.792969 49.289062 38.347656 56.039062 41.511719 54.691406 C 44.664062 53.351562 43.515625 52.230469 43.019531 50.730469 C 42.523438 49.226562 40.910156 46.105469 39.753906 46.292969 Z M 53.621094 58.527344 C 55.160156 59.878906 57.070312 61.589844 59.390625 60.539062 C 62.175781 59.285156 59.109375 53.628906 59.109375 53.628906 C 57.582031 58.550781 53.105469 58.074219 53.621094 58.527344 Z M 50.960938 49.628906 C 53.890625 47.832031 48.132812 44.285156 46.832031 43.484375 C 45.53125 42.683594 45.132812 43.332031 45.132812 43.332031 C 44.308594 44.164062 45.917969 47.289062 46.855469 48.5625 C 47.796875 49.835938 48.039062 51.421875 50.960938 49.628906 Z M 47.960938 61.039062 C 47.960938 61.039062 48.757812 67.304688 46.585938 67.546875 C 44.410156 67.785156 42.070312 65.605469 41.003906 63.707031 C 40.980469 63.660156 44.46875 65.265625 47.960938 61.039062 " fill-opacity="1" fill-rule="nonzero"/></g></g></g></g></g><g clip-path="url(#id33)"><g clip-path="url(#id34)"><g clip-path="url(#id35)"><path fill="rgb(100%, 100%, 100%)" d="M 55.164062 53.410156 C 55.082031 53.347656 54.933594 53.410156 54.867188 53.460938 C 54.71875 53.578125 54.589844 53.714844 54.464844 53.855469 C 54.40625 53.917969 54.347656 53.980469 54.285156 54.039062 C 54.269531 54.050781 54.257812 54.0625 54.242188 54.074219 C 54.238281 54.078125 54.222656 54.089844 54.21875 54.097656 C 54.203125 54.109375 54.183594 54.121094 54.167969 54.128906 C 54.164062 54.132812 54.15625 54.136719 54.152344 54.140625 C 54.148438 54.144531 54.144531 54.144531 54.140625 54.148438 C 54.074219 54.183594 53.941406 54.277344 53.988281 54.371094 C 54.035156 54.457031 54.195312 54.414062 54.257812 54.378906 C 54.4375 54.277344 54.59375 54.140625 54.734375 53.988281 C 54.796875 53.921875 54.855469 53.855469 54.914062 53.789062 C 54.949219 53.757812 54.980469 53.722656 55.015625 53.691406 C 55.027344 53.679688 55.042969 53.664062 55.058594 53.652344 C 55.0625 53.648438 55.0625 53.648438 55.066406 53.644531 C 55.074219 53.636719 55.082031 53.632812 55.089844 53.625 C 55.144531 53.582031 55.246094 53.476562 55.164062 53.410156 Z M 44.046875 58.339844 C 44.078125 58.378906 44.085938 58.445312 44.078125 58.492188 C 44.066406 58.542969 44.027344 58.609375 43.980469 58.636719 C 43.808594 58.75 43.628906 58.847656 43.433594 58.925781 C 43.382812 58.945312 43.328125 58.957031 43.269531 58.941406 C 43.21875 58.925781 43.179688 58.886719 43.160156 58.839844 C 43.140625 58.789062 43.152344 58.726562 43.175781 58.679688 C 43.199219 58.628906 43.25 58.574219 43.304688 58.554688 C 43.453125 58.492188 43.601562 58.421875 43.738281 58.335938 C 43.738281 58.335938 43.742188 58.335938 43.742188 58.332031 C 43.796875 58.300781 43.84375 58.277344 43.910156 58.277344 C 43.960938 58.277344 44.011719 58.300781 44.046875 58.339844 " fill-opacity="1" fill-rule="nonzero"/></g></g></g><g clip-path="url(#id36)"><g clip-path="url(#id37)"><g clip-path="url(#id38)"><path fill="rgb(97.24884%, 60.389709%, 18.03894%)" d="M 55.742188 54.070312 C 55.632812 54.085938 55.527344 54.144531 55.453125 54.226562 C 55.199219 54.5 54.925781 54.753906 54.628906 54.996094 C 54.585938 55.035156 54.515625 55.132812 54.617188 55.148438 C 54.71875 55.164062 54.839844 55.089844 54.914062 55.027344 C 55.230469 54.769531 55.527344 54.488281 55.804688 54.1875 C 55.824219 54.171875 55.851562 54.128906 55.835938 54.097656 C 55.820312 54.070312 55.769531 54.070312 55.742188 54.070312 Z M 44.402344 59.105469 C 44.476562 59.199219 44.460938 59.328125 44.367188 59.394531 C 44.105469 59.582031 43.796875 59.742188 43.464844 59.722656 C 43.34375 59.714844 43.238281 59.625 43.21875 59.503906 C 43.195312 59.394531 43.289062 59.285156 43.398438 59.292969 C 43.4375 59.296875 43.472656 59.296875 43.511719 59.292969 C 43.511719 59.292969 43.515625 59.292969 43.519531 59.292969 C 43.539062 59.289062 43.554688 59.285156 43.570312 59.28125 C 43.605469 59.277344 43.636719 59.265625 43.667969 59.257812 C 43.6875 59.25 43.703125 59.246094 43.71875 59.238281 C 43.722656 59.238281 43.726562 59.238281 43.730469 59.234375 C 43.859375 59.175781 43.980469 59.101562 44.097656 59.019531 C 44.195312 58.945312 44.339844 59.023438 44.402344 59.105469 " fill-opacity="1" fill-rule="nonzero"/></g></g></g><g fill="rgb(46.269226%, 26.669312%, 5.879211%)" fill-opacity="1"><g transform="translate(95.210061, 50.425651)"><g><path d="M 6.105469 0.621094 C 6.644531 0.648438 6.570312 -0.0976562 6.628906 -0.609375 C 6.785156 -1.683594 6.457031 -7.109375 6.445312 -7.886719 C 6.417969 -9.328125 6.429688 -9.074219 7.632812 -9.058594 C 8.28125 -9.058594 8.945312 -8.988281 9.597656 -9.171875 C 9.851562 -9.242188 10.046875 -9.398438 10.0625 -9.679688 C 10.089844 -9.976562 9.894531 -10.132812 9.640625 -10.21875 C 8.496094 -10.585938 1.867188 -11.121094 0.804688 -10.824219 C 0.535156 -10.769531 0.382812 -10.585938 0.351562 -10.304688 C 0.324219 -10.046875 0.425781 -9.824219 0.648438 -9.679688 C 1.257812 -9.3125 3.222656 -9.230469 4.421875 -9.171875 C 4.917969 -9.160156 5.046875 -8.960938 5.015625 -8.496094 C 4.847656 -5.679688 5.214844 -2.910156 5.625 -0.128906 C 5.679688 0.140625 5.679688 0.59375 6.105469 0.621094 Z M 6.105469 0.621094 "/></g></g></g><g fill="rgb(46.269226%, 26.669312%, 5.879211%)" fill-opacity="1"><g transform="translate(105.623371, 50.425651)"><g><path d="M 0.777344 -0.015625 C 1.3125 0.0703125 1.414062 -0.410156 1.527344 -0.804688 C 1.582031 -1.003906 1.570312 -1.214844 1.582031 -1.425781 C 1.652344 -2.203125 1.738281 -2.980469 1.78125 -3.757812 C 1.796875 -4.253906 1.949219 -4.507812 2.488281 -4.480469 C 5.582031 -4.183594 6.089844 -4.847656 7.335938 -3.136719 C 7.871094 -2.375 8.636719 -1.765625 9.300781 -1.101562 C 9.566406 -0.847656 9.878906 -0.523438 10.261719 -0.832031 C 10.640625 -1.160156 10.332031 -1.527344 10.191406 -1.851562 C 10.007812 -2.289062 8.253906 -4.054688 7.363281 -5.015625 C 8.113281 -5.273438 8.679688 -5.496094 9.144531 -5.90625 C 10.089844 -6.726562 10.089844 -7.730469 9.144531 -8.523438 C 7.984375 -9.484375 5.511719 -10.386719 2.996094 -10.472656 C 2.515625 -10.488281 2.007812 -10.429688 1.539062 -10.316406 C 0.578125 -10.078125 0.453125 -9.78125 0.679688 -8.777344 C 0.722656 -8.550781 0.691406 -8.296875 0.679688 -8.054688 C 0.523438 -5.667969 0.609375 -3.292969 0.382812 -0.90625 C 0.339844 -0.566406 0.269531 -0.0859375 0.777344 -0.015625 Z M 3.984375 -5.539062 C 3.25 -5.527344 2.402344 -5.199219 2.007812 -5.597656 C 1.539062 -6.050781 1.851562 -6.910156 1.867188 -7.605469 C 1.878906 -9.160156 1.652344 -9.046875 3.320312 -9.074219 C 5.371094 -9.117188 9.003906 -8.410156 8.945312 -7.164062 C 8.902344 -6.488281 8.269531 -6.164062 7.675781 -5.964844 C 6.445312 -5.539062 5.171875 -5.511719 3.984375 -5.539062 Z M 3.984375 -5.539062 "/></g></g></g><g fill="rgb(46.269226%, 26.669312%, 5.879211%)" fill-opacity="1"><g transform="translate(116.418176, 50.425651)"><g><path d="M 1.046875 0 C 1.867188 -0.0273438 1.765625 -1.144531 1.765625 -1.851562 L 1.765625 -4.707031 C 1.9375 -6.515625 1.949219 -7.871094 1.894531 -9.230469 C 1.878906 -9.554688 1.894531 -9.878906 1.695312 -10.175781 C 1.527344 -10.457031 1.171875 -10.457031 1.03125 -10.148438 C 0.550781 -6.417969 0.410156 -4.679688 0.351562 -1.457031 L 0.367188 -0.847656 C 0.394531 -0.410156 0.523438 0.015625 1.046875 0 Z M 1.046875 0 "/></g></g></g><g fill="rgb(46.269226%, 26.669312%, 5.879211%)" fill-opacity="1"><g transform="translate(118.692996, 50.425651)"><g><path d="M 1.117188 0 C 1.582031 0.0273438 1.738281 -0.324219 1.78125 -0.722656 L 1.808594 -3.929688 C 1.808594 -4.394531 1.9375 -4.636719 2.5 -4.679688 C 4.578125 -4.820312 6.515625 -5.539062 8.382812 -6.402344 C 12.804688 -8.410156 6.0625 -11.972656 1.160156 -10.640625 C 0.367188 -10.429688 0.269531 -10.246094 0.394531 -9.425781 C 0.59375 -8.199219 0.691406 -6.980469 0.648438 -5.738281 L 0.535156 -0.691406 C 0.566406 -0.324219 0.722656 -0.0273438 1.117188 0 Z M 1.949219 -6.164062 C 1.867188 -7.207031 1.796875 -8.183594 1.722656 -9.160156 C 1.695312 -9.457031 1.851562 -9.566406 2.148438 -9.625 C 4.382812 -10.046875 7.082031 -9.667969 8 -8.890625 C 9.679688 -7.492188 7.195312 -6.753906 5.144531 -6.457031 C 4.097656 -6.316406 3.039062 -6.261719 1.949219 -6.164062 Z M 1.949219 -6.164062 "/></g></g></g><g fill="rgb(46.269226%, 26.669312%, 5.879211%)" fill-opacity="1"><g transform="translate(128.64004, 50.425651)"><g><path d="M 1.117188 0 C 1.582031 0.0273438 1.738281 -0.324219 1.78125 -0.722656 L 1.808594 -3.929688 C 1.808594 -4.394531 1.9375 -4.636719 2.5 -4.679688 C 4.578125 -4.820312 6.515625 -5.539062 8.382812 -6.402344 C 12.804688 -8.410156 6.0625 -11.972656 1.160156 -10.640625 C 0.367188 -10.429688 0.269531 -10.246094 0.394531 -9.425781 C 0.59375 -8.199219 0.691406 -6.980469 0.648438 -5.738281 L 0.535156 -0.691406 C 0.566406 -0.324219 0.722656 -0.0273438 1.117188 0 Z M 1.949219 -6.164062 C 1.867188 -7.207031 1.796875 -8.183594 1.722656 -9.160156 C 1.695312 -9.457031 1.851562 -9.566406 2.148438 -9.625 C 4.382812 -10.046875 7.082031 -9.667969 8 -8.890625 C 9.679688 -7.492188 7.195312 -6.753906 5.144531 -6.457031 C 4.097656 -6.316406 3.039062 -6.261719 1.949219 -6.164062 Z M 1.949219 -6.164062 "/></g></g></g><g fill="rgb(46.269226%, 26.669312%, 5.879211%)" fill-opacity="1"><g transform="translate(138.587084, 50.425651)"><g><path d="M 5.539062 0.253906 C 6.089844 0.253906 6.164062 -0.183594 6.148438 -0.621094 C 6.121094 -1.78125 6.132812 -2.925781 6.078125 -4.085938 C 6.035156 -4.59375 6.148438 -5.003906 6.445312 -5.457031 C 7.789062 -7.476562 9.34375 -8.789062 10.429688 -10.304688 C 10.628906 -10.585938 10.742188 -10.925781 10.417969 -11.195312 C 10.078125 -11.460938 9.78125 -11.234375 9.566406 -10.980469 C 8.945312 -10.203125 8.140625 -9.625 7.449219 -8.917969 C 6.613281 -8.054688 5.78125 -7.207031 5.3125 -6.007812 C 4.875 -6.246094 4.71875 -6.601562 4.523438 -6.910156 C 3.757812 -8.183594 2.796875 -9.3125 1.835938 -10.429688 C 1.257812 -11.121094 0.777344 -11.277344 0.523438 -10.925781 C 0.113281 -10.386719 0.535156 -9.992188 0.863281 -9.640625 C 2.121094 -8.296875 3.222656 -6.8125 4.421875 -5.398438 C 4.804688 -4.945312 4.945312 -4.523438 4.917969 -3.972656 C 4.890625 -2.855469 4.917969 -1.753906 4.917969 -0.636719 C 4.917969 -0.199219 5.015625 0.253906 5.539062 0.253906 Z M 5.539062 0.253906 "/></g></g></g></svg>